<svg width="18" height="18" viewBox="0 0 18 18" fill="none" xmlns="http://www.w3.org/2000/svg">
<path d="M18 9C18 13.9706 13.9706 18 9 18C4.02944 18 0 13.9706 0 9C0 4.02944 4.02944 0 9 0C13.9706 0 18 4.02944 18 9Z" fill="#4BDAE4"/>
<path d="M8.5 14H3.5V4H8.5V14Z" fill="white"/>
<path d="M14.5 13.7002H9.5V13H14.5V13.7002Z" fill="white"/>
<path d="M14.5 10.7002H9.5V10H14.5V10.7002Z" fill="white"/>
<path d="M14.5 7.7002H9.5V7H14.5V7.7002Z" fill="white"/>
<path d="M14.5 4.7002H9.5V4H14.5V4.7002Z" fill="white"/>
<path fill-rule="evenodd" clip-rule="evenodd" d="M9 0C13.9706 0 18 4.02944 18 9C18 13.9706 13.9706 18 9 18C4.02944 18 0 13.9706 0 9C0 4.02944 4.02944 0 9 0ZM9 0.700195C4.41604 0.700195 0.700195 4.41604 0.700195 9C0.700195 13.584 4.41604 17.2998 9 17.2998C13.584 17.2998 17.2998 13.584 17.2998 9C17.2998 4.41604 13.584 0.700195 9 0.700195Z" fill="#52C0C8"/>
</svg>
