<svg width="100" height="100" viewBox="0 0 100 100" fill="none" xmlns="http://www.w3.org/2000/svg">
<path d="M0 7.97101C0 3.56874 3.56874 0 7.97101 0H92.029C96.4313 0 100 3.56874 100 7.97101V92.029C100 96.4313 96.4313 100 92.029 100H7.97101C3.56874 100 0 96.4313 0 92.029V7.97101Z" fill="#FAE100"/>
<path fill-rule="evenodd" clip-rule="evenodd" d="M49.8792 15.7005C63.8197 15.7005 75.1208 26.7311 75.1208 40.3382C75.1208 51.2077 64.8551 61.4734 60.8696 66.5459C53.0954 76.087 53.1401 86.2319 49.8792 86.2319C46.6184 86.2319 46.7391 75.8454 37.8019 64.8551C29.2271 54.9517 24.6377 49.2285 24.6377 40.3382C24.6377 26.7311 35.9387 15.7005 49.8792 15.7005ZM50 32.3672C45.3309 32.3672 41.5459 36.1522 41.5459 40.8213C41.5459 45.4903 45.3309 49.2754 50 49.2754C54.6691 49.2754 58.4541 45.4903 58.4541 40.8213C58.4541 36.1522 54.6691 32.3672 50 32.3672Z" fill="#007DFF"/>
</svg>
